<svg xmlns="http://www.w3.org/2000/svg" width="64" height="64" viewBox="0 0 64 64">
  <defs>
    <linearGradient id="chatGradient" x1="0%" y1="0%" x2="100%" y2="100%">
      <stop offset="0%" style="stop-color:#4F46E5;stop-opacity:1" />
      <stop offset="100%" style="stop-color:#7C3AED;stop-opacity:1" />
    </linearGradient>
  </defs>
  
  <!-- 主聊天气泡 -->
  <path d="M16 12 C16 8, 20 4, 24 4 L44 4 C48 4, 52 8, 52 12 L52 28 C52 32, 48 36, 44 36 L28 36 L20 44 C18 46, 16 44, 16 42 Z" 
        fill="url(#chatGradient)" stroke="none"/>
  
  <!-- 小聊天气泡 -->
  <path d="M12 32 C12 30, 14 28, 16 28 L32 28 C34 28, 36 30, 36 32 L36 40 C36 42, 34 44, 32 44 L22 44 L18 48 C17 49, 16 48, 16 47 Z" 
        fill="#E5E7EB" stroke="none"/>
  
  <!-- 聊天点 -->
  <circle cx="32" cy="18" r="2" fill="white"/>
  <circle cx="38" cy="18" r="2" fill="white"/>
  <circle cx="44" cy="18" r="2" fill="white"/>
  
  <!-- AI标识 -->
  <text x="24" y="38" font-family="Arial, sans-serif" font-size="8" font-weight="bold" fill="#6B7280">AI</text>
</svg> 